<svg width="650" height="822" fill="none" xmlns="http://www.w3.org/2000/svg"><g opacity=".8" fill="#5E50A1"><path d="M0 0h650v822H0V0Z"/><path d="M92.3 518.902h-2.434l-4.034-5.818-1.24 1.011v4.807h-2.1v-12.849h2.1v6.135a79.332 79.332 0 0 1 1.715-2.031l3.471-4.104h2.39a863.686 863.686 0 0 1-4.824 5.634l4.957 7.215Zm7.568 0-.413-1.353h-.07c-.469.592-.94.996-1.415 1.213-.475.211-1.084.316-1.828.316-.956 0-1.703-.258-2.242-.773-.533-.516-.8-1.245-.8-2.189 0-1.002.373-1.758 1.117-2.267.744-.51 1.878-.788 3.401-.835l1.679-.053v-.519c0-.621-.147-1.084-.44-1.388-.287-.311-.735-.466-1.344-.466-.498 0-.976.073-1.433.22-.457.146-.896.319-1.318.518l-.668-1.476a7.008 7.008 0 0 1 1.731-.624 7.788 7.788 0 0 1 1.776-.22c1.236 0 2.168.269 2.795.808.632.54.949 1.386.949 2.54v6.548h-1.477Zm-3.076-1.406c.75 0 1.35-.208 1.802-.624.457-.422.685-1.011.685-1.767v-.843l-1.248.052c-.972.036-1.681.2-2.127.493-.44.287-.659.729-.659 1.327 0 .433.129.77.387 1.011.258.234.644.351 1.16.351Zm15.627 1.406h-2.074v-5.994c0-.744-.141-1.298-.422-1.661-.281-.369-.721-.554-1.319-.554-.796 0-1.382.261-1.757.783-.369.515-.554 1.377-.554 2.584v4.842h-2.065v-9.72h1.617l.29 1.274h.105c.27-.463.659-.82 1.169-1.072a3.811 3.811 0 0 1 1.696-.378c1.495 0 2.485.51 2.971 1.529h.141c.287-.48.691-.855 1.213-1.125.521-.269 1.119-.404 1.793-.404 1.16 0 2.004.293 2.531.879.533.586.8 1.479.8 2.68v6.337h-2.066v-5.994c0-.744-.143-1.298-.43-1.661-.282-.369-.721-.554-1.319-.554-.802 0-1.391.252-1.766.756-.369.498-.554 1.266-.554 2.303v5.15Zm11.083 0h-2.065v-9.72h2.065v9.72Zm-2.189-12.296c0-.369.1-.653.299-.852.205-.199.495-.299.87-.299.364 0 .645.1.844.299.205.199.308.483.308.852 0 .352-.103.63-.308.835-.199.2-.48.299-.844.299-.375 0-.665-.099-.87-.299-.199-.205-.299-.483-.299-.835Zm18.554 3.332c0 1.341-.439 2.37-1.318 3.084-.879.715-2.13 1.073-3.753 1.073h-1.336v4.807h-2.101v-12.849h3.701c1.605 0 2.806.328 3.603.984.803.656 1.204 1.623 1.204 2.901Zm-6.407 2.39h1.116c1.078 0 1.869-.187 2.373-.562.504-.375.756-.961.756-1.758 0-.738-.226-1.289-.677-1.653-.451-.363-1.154-.544-2.109-.544h-1.459v4.517Zm10.819 6.574h-2.065v-9.72h2.065v9.72Zm-2.188-12.296c0-.369.099-.653.299-.852.205-.199.495-.299.87-.299.363 0 .644.1.844.299.205.199.307.483.307.852 0 .352-.102.63-.307.835-.2.2-.481.299-.844.299-.375 0-.665-.099-.87-.299-.2-.205-.299-.483-.299-.835Zm7.216 12.296h-2.066v-13.675h2.066v13.675Zm5.027 0h-2.065v-9.72h2.065v9.72Zm-2.188-12.296c0-.369.099-.653.298-.852.205-.199.495-.299.87-.299.364 0 .645.1.844.299.205.199.308.483.308.852 0 .352-.103.63-.308.835-.199.2-.48.299-.844.299-.375 0-.665-.099-.87-.299-.199-.205-.298-.483-.298-.835Zm13.702 12.296h-2.075v-5.976c0-.75-.152-1.31-.457-1.679-.298-.369-.776-.554-1.432-.554-.867 0-1.506.261-1.916.783-.405.515-.607 1.382-.607 2.601v4.825h-2.065v-13.675h2.065v3.471c0 .557-.035 1.152-.105 1.784h.132a2.871 2.871 0 0 1 1.169-1.089c.504-.258 1.089-.387 1.757-.387 2.356 0 3.534 1.186 3.534 3.559v6.337Zm13.324 0-3.727-10.731h-.07c.1 1.594.149 3.088.149 4.482v6.249h-1.907v-12.849h2.962l3.568 10.221h.053l3.674-10.221h2.971v12.849h-2.022v-6.354c0-.639.015-1.471.044-2.496.035-1.026.065-1.647.088-1.864h-.07l-3.859 10.714h-1.854Zm15.082.176c-1.512 0-2.695-.439-3.551-1.318-.849-.885-1.274-2.101-1.274-3.648 0-1.588.395-2.836 1.186-3.744.791-.908 1.878-1.362 3.261-1.362 1.283 0 2.297.39 3.041 1.169.744.779 1.116 1.851 1.116 3.217v1.116h-6.477c.029.943.284 1.67.764 2.18.481.503 1.158.755 2.031.755.574 0 1.107-.052 1.599-.158a8.612 8.612 0 0 0 1.6-.545v1.679c-.504.24-1.014.41-1.529.51a9.44 9.44 0 0 1-1.767.149Zm-.378-8.508c-.656 0-1.184.208-1.582.624-.393.416-.627 1.023-.703 1.82h4.412c-.012-.803-.205-1.41-.58-1.82-.375-.416-.891-.624-1.547-.624Zm15.056 8.332h-2.075v-5.976c0-.75-.152-1.31-.457-1.679-.298-.369-.776-.554-1.432-.554-.873 0-1.512.258-1.916.774-.405.515-.607 1.38-.607 2.593v4.842h-2.065v-9.72h1.617l.29 1.274h.106c.293-.463.709-.82 1.248-1.072a4.18 4.18 0 0 1 1.793-.378c2.332 0 3.498 1.186 3.498 3.559v6.337Zm6.495-1.494a5.02 5.02 0 0 0 1.511-.237v1.556a4.076 4.076 0 0 1-.887.246c-.358.07-.73.105-1.116.105-1.957 0-2.936-1.031-2.936-3.094v-5.238h-1.327v-.914l1.424-.756.703-2.056h1.274v2.162h2.769v1.564h-2.769v5.203c0 .498.123.867.369 1.108.252.234.58.351.985.351Zm12.085-3.384c0 1.588-.408 2.828-1.222 3.718-.814.891-1.948 1.336-3.401 1.336-.909 0-1.711-.205-2.409-.615-.697-.41-1.233-.999-1.608-1.767-.375-.767-.562-1.658-.562-2.672 0-1.576.404-2.806 1.212-3.691.809-.885 1.949-1.327 3.419-1.327 1.407 0 2.52.454 3.34 1.362.821.903 1.231 2.121 1.231 3.656Zm-7.075 0c0 2.245.829 3.367 2.487 3.367 1.64 0 2.461-1.122 2.461-3.367 0-2.22-.826-3.331-2.479-3.331-.867 0-1.497.287-1.889.862-.387.574-.58 1.397-.58 2.469Zm14.387-5.018c.416 0 .759.029 1.029.088l-.203 1.925a3.864 3.864 0 0 0-.914-.106c-.826 0-1.497.27-2.012.809-.51.539-.765 1.239-.765 2.1v5.08h-2.065v-9.72h1.617l.272 1.714h.106a3.847 3.847 0 0 1 1.257-1.38 3.016 3.016 0 0 1 1.678-.51Zm12.173 9.896h-2.101v-11.048h-3.779v-1.801h9.659v1.801h-3.779v11.048Zm9.782.176c-1.511 0-2.695-.439-3.55-1.318-.85-.885-1.275-2.101-1.275-3.648 0-1.588.396-2.836 1.187-3.744.791-.908 1.878-1.362 3.26-1.362 1.284 0 2.297.39 3.041 1.169.745.779 1.117 1.851 1.117 3.217v1.116h-6.478c.029.943.284 1.67.765 2.18.48.503 1.157.755 2.03.755.574 0 1.107-.052 1.6-.158a8.58 8.58 0 0 0 1.599-.545v1.679c-.504.24-1.013.41-1.529.51a9.44 9.44 0 0 1-1.767.149Zm-.378-8.508c-.656 0-1.183.208-1.582.624-.392.416-.627 1.023-.703 1.82h4.412c-.011-.803-.205-1.41-.58-1.82-.375-.416-.89-.624-1.547-.624Zm11.435-1.564c.416 0 .759.029 1.028.088l-.202 1.925a3.87 3.87 0 0 0-.914-.106c-.826 0-1.497.27-2.013.809-.509.539-.764 1.239-.764 2.1v5.08h-2.066v-9.72h1.617l.273 1.714h.105a3.865 3.865 0 0 1 1.257-1.38 3.02 3.02 0 0 1 1.679-.51Zm7.805 0c1.213 0 2.156.439 2.83 1.318.679.879 1.019 2.113 1.019 3.7 0 1.594-.343 2.836-1.028 3.727-.686.885-1.638 1.327-2.857 1.327-1.23 0-2.185-.442-2.865-1.327h-.14l-.378 1.151h-1.547v-13.675h2.065v3.252c0 .24-.011.597-.035 1.072-.023.474-.041.776-.053.905h.088c.656-.967 1.623-1.45 2.901-1.45Zm-.537 1.687c-.832 0-1.432.246-1.801.739-.364.486-.551 1.303-.563 2.452v.14c0 1.184.188 2.042.563 2.576.375.527.987.791 1.837.791.732 0 1.286-.29 1.661-.87.381-.581.571-1.418.571-2.514 0-2.209-.756-3.314-2.268-3.314Zm12.868 8.209-.413-1.353h-.071c-.468.592-.94.996-1.415 1.213-.474.211-1.084.316-1.828.316-.955 0-1.702-.258-2.241-.773-.533-.516-.8-1.245-.8-2.189 0-1.002.372-1.758 1.116-2.267.744-.51 1.878-.788 3.402-.835l1.678-.053v-.519c0-.621-.146-1.084-.439-1.388-.287-.311-.735-.466-1.345-.466-.498 0-.975.073-1.432.22-.457.146-.897.319-1.319.518l-.668-1.476a7.023 7.023 0 0 1 1.732-.624 7.783 7.783 0 0 1 1.775-.22c1.236 0 2.168.269 2.795.808.633.54.949 1.386.949 2.54v6.548h-1.476Zm-3.076-1.406c.75 0 1.35-.208 1.801-.624.457-.422.686-1.011.686-1.767v-.843l-1.248.052c-.973.036-1.682.2-2.127.493-.44.287-.659.729-.659 1.327 0 .433.129.77.386 1.011.258.234.645.351 1.161.351Zm9.5 1.406h-2.065v-9.72h2.065v9.72Zm-2.188-12.296c0-.369.1-.653.299-.852.205-.199.495-.299.87-.299.363 0 .644.1.844.299.205.199.307.483.307.852 0 .352-.102.63-.307.835-.2.2-.481.299-.844.299-.375 0-.665-.099-.87-.299-.199-.205-.299-.483-.299-.835Zm7.146 7.164 1.168-1.459 2.936-3.129h2.382l-3.911 4.174 4.157 5.546h-2.426l-3.12-4.262-1.134.931v3.331h-2.048v-13.675h2.048v6.67l-.105 1.873h.053Zm23.273-7.717v8.314c0 .949-.205 1.781-.615 2.496-.405.709-.993 1.257-1.767 1.644-.767.381-1.687.571-2.76.571-1.593 0-2.833-.422-3.717-1.266-.885-.843-1.328-2.003-1.328-3.48v-8.279h2.11v8.13c0 1.06.246 1.842.738 2.346s1.248.756 2.268.756c1.98 0 2.97-1.04 2.97-3.12v-8.112h2.101Zm11.619 12.849h-2.074v-5.976c0-.75-.152-1.31-.457-1.679-.299-.369-.777-.554-1.433-.554-.873 0-1.511.258-1.916.774-.404.515-.606 1.38-.606 2.593v4.842h-2.066v-9.72h1.618l.29 1.274h.105c.293-.463.709-.82 1.248-1.072a4.183 4.183 0 0 1 1.793-.378c2.332 0 3.498 1.186 3.498 3.559v6.337Zm6.495-1.494a5.03 5.03 0 0 0 1.512-.237v1.556a4.086 4.086 0 0 1-.888.246c-.357.07-.729.105-1.116.105-1.957 0-2.936-1.031-2.936-3.094v-5.238h-1.327v-.914l1.424-.756.703-2.056h1.275v2.162h2.768v1.564h-2.768v5.203c0 .498.123.867.369 1.108.252.234.58.351.984.351Zm10.319 1.494-.29-1.274h-.106c-.287.451-.697.806-1.23 1.063-.528.258-1.131.387-1.811.387-1.178 0-2.057-.293-2.637-.879-.58-.586-.87-1.473-.87-2.663v-6.354h2.083v5.994c0 .744.153 1.303.457 1.678.305.37.782.554 1.433.554.867 0 1.503-.258 1.907-.773.41-.522.615-1.392.615-2.611v-4.842h2.075v9.72h-1.626Zm6.565-5.132 1.169-1.459 2.935-3.129h2.382l-3.911 4.174 4.157 5.546h-2.425l-3.12-4.262-1.134.931v3.331h-2.048v-13.675h2.048v6.67l-.106 1.873h.053Zm18.756 5.132-3.727-10.731h-.07c.1 1.594.149 3.088.149 4.482v6.249h-1.907v-12.849h2.962l3.568 10.221h.053l3.674-10.221h2.971v12.849h-2.022v-6.354c0-.639.015-1.471.044-2.496.035-1.026.065-1.647.088-1.864h-.07l-3.859 10.714h-1.854Zm15.082.176c-1.512 0-2.695-.439-3.551-1.318-.85-.885-1.274-2.101-1.274-3.648 0-1.588.395-2.836 1.186-3.744.791-.908 1.878-1.362 3.261-1.362 1.283 0 2.297.39 3.041 1.169.744.779 1.116 1.851 1.116 3.217v1.116h-6.477c.029.943.284 1.67.764 2.18.481.503 1.158.755 2.031.755.574 0 1.107-.052 1.599-.158a8.612 8.612 0 0 0 1.6-.545v1.679a6.37 6.37 0 0 1-1.53.51 9.42 9.42 0 0 1-1.766.149Zm-.378-8.508c-.656 0-1.184.208-1.582.624-.393.416-.627 1.023-.703 1.82h4.412c-.012-.803-.205-1.41-.58-1.82-.375-.416-.891-.624-1.547-.624Zm15.056 8.332h-2.075v-5.976c0-.75-.152-1.31-.457-1.679-.298-.369-.776-.554-1.432-.554-.873 0-1.512.258-1.916.774-.405.515-.607 1.38-.607 2.593v4.842h-2.065v-9.72h1.617l.29 1.274h.106c.293-.463.709-.82 1.248-1.072a4.18 4.18 0 0 1 1.793-.378c2.332 0 3.498 1.186 3.498 3.559v6.337Zm6.152.176c-1.213 0-2.159-.439-2.839-1.318-.68-.879-1.019-2.113-1.019-3.7 0-1.594.342-2.833 1.028-3.718.691-.891 1.646-1.336 2.865-1.336 1.277 0 2.25.472 2.918 1.415h.106c-.1-.697-.15-1.248-.15-1.652v-3.542h2.074v13.675h-1.617l-.36-1.274h-.097c-.662.967-1.632 1.45-2.909 1.45Zm.554-1.67c.849 0 1.467-.237 1.854-.712.387-.48.586-1.257.598-2.329v-.29c0-1.224-.199-2.095-.598-2.61-.398-.516-1.022-.774-1.872-.774-.726 0-1.286.296-1.679.888-.392.586-.588 1.424-.588 2.514 0 1.078.19 1.901.571 2.469.381.563.952.844 1.714.844Zm16.005-3.384c0 1.588-.408 2.828-1.222 3.718-.815.891-1.948 1.336-3.401 1.336-.909 0-1.711-.205-2.409-.615-.697-.41-1.233-.999-1.608-1.767-.375-.767-.563-1.658-.563-2.672 0-1.576.405-2.806 1.213-3.691.809-.885 1.949-1.327 3.419-1.327 1.407 0 2.52.454 3.34 1.362.82.903 1.231 2.121 1.231 3.656Zm-7.076 0c0 2.245.829 3.367 2.488 3.367 1.64 0 2.461-1.122 2.461-3.367 0-2.22-.827-3.331-2.479-3.331-.867 0-1.497.287-1.89.862-.386.574-.58 1.397-.58 2.469Zm14.388-5.018c.416 0 .759.029 1.028.088l-.202 1.925a3.864 3.864 0 0 0-.914-.106c-.826 0-1.497.27-2.013.809-.509.539-.764 1.239-.764 2.1v5.08h-2.066v-9.72h1.618l.272 1.714h.106a3.854 3.854 0 0 1 1.256-1.38 3.02 3.02 0 0 1 1.679-.51Zm11.461 5.018c0 1.588-.407 2.828-1.222 3.718-.814.891-1.948 1.336-3.401 1.336-.908 0-1.711-.205-2.408-.615-.698-.41-1.234-.999-1.609-1.767-.375-.767-.562-1.658-.562-2.672 0-1.576.404-2.806 1.213-3.691.808-.885 1.948-1.327 3.419-1.327 1.406 0 2.519.454 3.34 1.362.82.903 1.23 2.121 1.23 3.656Zm-7.075 0c0 2.245.829 3.367 2.487 3.367 1.641 0 2.461-1.122 2.461-3.367 0-2.22-.826-3.331-2.478-3.331-.868 0-1.498.287-1.89.862-.387.574-.58 1.397-.58 2.469Zm18.009 4.878h-2.075v-5.976c0-.75-.152-1.31-.457-1.679-.298-.369-.776-.554-1.432-.554-.873 0-1.512.258-1.916.774-.405.515-.607 1.38-.607 2.593v4.842h-2.065v-9.72h1.617l.29 1.274h.106c.292-.463.709-.82 1.248-1.072a4.18 4.18 0 0 1 1.793-.378c2.332 0 3.498 1.186 3.498 3.559v6.337Zm11.083-9.72v1.133l-1.662.308c.153.205.279.457.378.756.1.299.15.615.15.949 0 1.002-.346 1.79-1.037 2.364-.692.575-1.644.862-2.857.862-.31 0-.592-.024-.843-.071-.446.276-.668.598-.668.967 0 .223.102.39.307.501.211.111.595.167 1.152.167h1.696c1.072 0 1.887.229 2.443.686.557.457.835 1.116.835 1.977 0 1.102-.454 1.951-1.362 2.549-.908.598-2.221.897-3.938.897-1.324 0-2.335-.235-3.032-.704-.697-.468-1.046-1.136-1.046-2.003 0-.598.188-1.102.563-1.512.381-.404.911-.686 1.591-.844a1.593 1.593 0 0 1-.686-.562 1.47 1.47 0 0 1-.264-.827c0-.363.103-.671.308-.922.205-.252.51-.501.914-.748a2.733 2.733 0 0 1-1.23-1.054c-.311-.492-.466-1.067-.466-1.723 0-1.055.331-1.872.993-2.452.668-.58 1.617-.87 2.848-.87.275 0 .562.02.861.061.305.036.533.074.685.115h3.367Zm-7.638 11.232c0 .445.199.788.598 1.028.404.241.969.361 1.696.361 1.125 0 1.963-.161 2.514-.484.55-.322.826-.75.826-1.283 0-.422-.153-.724-.457-.905-.299-.176-.859-.264-1.679-.264h-1.564c-.592 0-1.064.138-1.416.413-.345.282-.518.659-.518 1.134Zm.888-8.086c0 .61.155 1.078.465 1.406.317.328.768.493 1.354.493 1.195 0 1.793-.639 1.793-1.916 0-.633-.15-1.12-.448-1.459-.293-.346-.742-.519-1.345-.519-.598 0-1.052.17-1.362.51-.305.34-.457.835-.457 1.485Zm13.456-6.275h3.814c1.77 0 3.047.258 3.832.773.791.516 1.187 1.33 1.187 2.444 0 .75-.194 1.374-.58 1.872-.387.498-.944.811-1.67.94v.088c.902.17 1.564.507 1.986 1.011.428.498.642 1.174.642 2.03 0 1.154-.405 2.06-1.213 2.716-.803.65-1.922.975-3.358.975h-4.64v-12.849Zm2.1 5.308h2.022c.879 0 1.52-.137 1.925-.413.404-.281.606-.756.606-1.424 0-.603-.22-1.04-.659-1.309-.434-.27-1.125-.404-2.074-.404h-1.82v3.55Zm0 1.705v4.07h2.233c.879 0 1.541-.167 1.986-.501.451-.34.677-.873.677-1.6 0-.668-.229-1.163-.686-1.485-.457-.322-1.151-.484-2.083-.484h-2.127Zm13.808 6.012c-1.512 0-2.695-.439-3.551-1.318-.85-.885-1.274-2.101-1.274-3.648 0-1.588.395-2.836 1.186-3.744.791-.908 1.878-1.362 3.261-1.362 1.283 0 2.297.39 3.041 1.169.744.779 1.116 1.851 1.116 3.217v1.116h-6.477c.029.943.284 1.67.764 2.18.481.503 1.157.755 2.031.755.574 0 1.107-.052 1.599-.158a8.612 8.612 0 0 0 1.6-.545v1.679a6.37 6.37 0 0 1-1.53.51 9.42 9.42 0 0 1-1.766.149Zm-.378-8.508c-.656 0-1.184.208-1.582.624-.393.416-.627 1.023-.703 1.82h4.412c-.012-.803-.205-1.41-.58-1.82-.375-.416-.891-.624-1.547-.624Zm8.569 8.332h-2.065v-13.675h2.065v13.675Zm9.044 0-.413-1.353h-.07c-.469.592-.941.996-1.415 1.213-.475.211-1.084.316-1.828.316-.955 0-1.703-.258-2.242-.773-.533-.516-.799-1.245-.799-2.189 0-1.002.372-1.758 1.116-2.267.744-.51 1.878-.788 3.401-.835l1.679-.053v-.519c0-.621-.147-1.084-.44-1.388-.287-.311-.735-.466-1.344-.466-.498 0-.976.073-1.433.22a10.77 10.77 0 0 0-1.318.518l-.668-1.476a7 7 0 0 1 1.731-.624 7.792 7.792 0 0 1 1.776-.22c1.236 0 2.168.269 2.795.808.632.54.949 1.386.949 2.54v6.548h-1.477Zm-3.076-1.406c.75 0 1.351-.208 1.802-.624.457-.422.685-1.011.685-1.767v-.843l-1.248.052c-.972.036-1.681.2-2.127.493-.439.287-.659.729-.659 1.327 0 .433.129.77.387 1.011.258.234.644.351 1.16.351Zm6.442 5.731c-.621 0-1.136-.074-1.546-.22v-1.635c.398.106.805.158 1.221.158.879 0 1.319-.498 1.319-1.494v-10.854h2.065v10.995c0 1.002-.264 1.761-.791 2.276-.521.516-1.277.774-2.268.774Zm.871-16.621c0-.369.099-.653.298-.852.205-.199.495-.299.87-.299.364 0 .645.1.844.299.205.199.308.483.308.852 0 .352-.103.63-.308.835-.199.2-.48.299-.844.299-.375 0-.665-.099-.87-.299-.199-.205-.298-.483-.298-.835Zm11.232 12.296-.413-1.353h-.07c-.469.592-.941.996-1.415 1.213-.475.211-1.084.316-1.829.316-.955 0-1.702-.258-2.241-.773-.533-.516-.8-1.245-.8-2.189 0-1.002.372-1.758 1.117-2.267.744-.51 1.878-.788 3.401-.835l1.679-.053v-.519c0-.621-.147-1.084-.44-1.388-.287-.311-.735-.466-1.345-.466-.498 0-.975.073-1.432.22-.457.146-.897.319-1.318.518l-.668-1.476a7 7 0 0 1 1.731-.624 7.79 7.79 0 0 1 1.775-.22c1.237 0 2.168.269 2.795.808.633.54.95 1.386.95 2.54v6.548h-1.477Zm-3.076-1.406c.75 0 1.35-.208 1.802-.624.457-.422.685-1.011.685-1.767v-.843l-1.248.052c-.973.036-1.682.2-2.127.493-.439.287-.659.729-.659 1.327 0 .433.129.77.387 1.011.257.234.644.351 1.16.351Zm12.366-8.49c.416 0 .759.029 1.028.088l-.202 1.925a3.864 3.864 0 0 0-.914-.106c-.826 0-1.497.27-2.013.809-.509.539-.764 1.239-.764 2.1v5.08h-2.066v-9.72h1.618l.272 1.714h.105a3.865 3.865 0 0 1 1.257-1.38 3.02 3.02 0 0 1 1.679-.51Zm11.03 9.896h-2.074v-5.994c0-.744-.141-1.298-.422-1.661-.281-.369-.721-.554-1.318-.554-.797 0-1.383.261-1.758.783-.369.515-.554 1.377-.554 2.584v4.842h-2.065v-9.72h1.617l.29 1.274h.106c.269-.463.659-.82 1.169-1.072a3.808 3.808 0 0 1 1.696-.378c1.494 0 2.484.51 2.971 1.529h.14c.287-.48.692-.855 1.213-1.125.521-.269 1.119-.404 1.793-.404 1.16 0 2.004.293 2.531.879.533.586.8 1.479.8 2.68v6.337h-2.065v-5.994c0-.744-.144-1.298-.431-1.661-.281-.369-.721-.554-1.318-.554-.803 0-1.392.252-1.767.756-.369.498-.554 1.266-.554 2.303v5.15Zm15.873 0-.29-1.274h-.105c-.287.451-.697.806-1.231 1.063-.527.258-1.131.387-1.81.387-1.178 0-2.057-.293-2.637-.879-.58-.586-.87-1.473-.87-2.663v-6.354h2.083v5.994c0 .744.152 1.303.457 1.678.305.37.782.554 1.433.554.867 0 1.503-.258 1.907-.773.41-.522.615-1.392.615-2.611v-4.842h2.074v9.72h-1.626Zm4.263-1.098c0-.428.111-.756.334-.985.223-.228.545-.342.967-.342.428 0 .753.12.975.36.223.234.334.557.334.967 0 .416-.114.747-.342.993-.223.24-.545.36-.967.36-.422 0-.744-.12-.967-.36-.223-.24-.334-.571-.334-.993ZM97.266 568.172h-1.329v-5.375h-6.015v5.375h-1.328V556.75h1.328v4.859h6.016v-4.859h1.328v11.422Zm8.211 0-.258-1.219h-.063c-.427.537-.854.901-1.281 1.094-.422.187-.951.281-1.586.281-.849 0-1.516-.219-2-.656-.48-.438-.719-1.06-.719-1.867 0-1.729 1.383-2.636 4.149-2.719l1.453-.047v-.531c0-.672-.146-1.167-.438-1.485-.286-.322-.747-.484-1.382-.484-.714 0-1.521.219-2.422.656l-.399-.992a6.112 6.112 0 0 1 1.383-.539 6.058 6.058 0 0 1 1.516-.195c1.021 0 1.776.226 2.265.679.495.454.743 1.18.743 2.18v5.844h-.961Zm-2.93-.914c.807 0 1.44-.222 1.898-.664.464-.443.696-1.063.696-1.86v-.773l-1.297.055c-1.032.036-1.776.198-2.235.484-.453.281-.679.721-.679 1.32 0 .469.14.826.422 1.071.286.244.684.367 1.195.367Zm12.398-.235h-.07c-.599.87-1.495 1.305-2.687 1.305-1.12 0-1.993-.383-2.618-1.148-.619-.766-.929-1.854-.929-3.266 0-1.411.312-2.508.937-3.289.625-.781 1.495-1.172 2.61-1.172 1.161 0 2.052.422 2.671 1.266h.102l-.055-.617-.031-.602v-3.484h1.297v12.156h-1.055l-.172-1.149Zm-2.593.219c.885 0 1.526-.239 1.921-.719.401-.484.602-1.263.602-2.335v-.274c0-1.213-.203-2.078-.609-2.594-.401-.521-1.045-.781-1.93-.781-.76 0-1.344.297-1.75.891-.401.588-.602 1.422-.602 2.5 0 1.093.201 1.919.602 2.476.401.558.99.836 1.766.836Zm7.875.93h-1.297v-8.563h1.297v8.563Zm-1.407-10.883c0-.297.073-.513.219-.648a.755.755 0 0 1 .547-.211c.208 0 .388.07.539.211.151.14.227.356.227.648 0 .292-.076.51-.227.656a.763.763 0 0 1-.539.211.755.755 0 0 1-.547-.211c-.146-.146-.219-.364-.219-.656Zm8.063 2.164c.38 0 .721.031 1.023.094l-.179 1.203a4.434 4.434 0 0 0-.938-.117c-.693 0-1.286.281-1.781.844-.49.562-.735 1.263-.735 2.101v4.594h-1.296v-8.563h1.07l.148 1.586h.063c.318-.557.7-.987 1.148-1.289.448-.302.94-.453 1.477-.453Zm8.484 8.719v-5.539c0-.698-.159-1.219-.476-1.563-.318-.343-.815-.515-1.493-.515-.895 0-1.552.242-1.968.726-.417.485-.625 1.284-.625 2.399v4.492h-1.297v-8.563h1.054l.211 1.172h.063a2.622 2.622 0 0 1 1.117-.976 3.588 3.588 0 0 1 1.602-.352c1.031 0 1.807.25 2.328.75.521.495.781 1.289.781 2.383v5.586h-1.297Zm2.61-8.563h1.39l1.875 4.883c.412 1.115.667 1.919.766 2.414h.062c.068-.265.209-.718.422-1.359.219-.646.927-2.625 2.125-5.938h1.391l-3.68 9.75c-.364.964-.792 1.646-1.281 2.047-.485.406-1.081.61-1.789.61-.396 0-.787-.045-1.172-.133v-1.039c.286.062.607.094.961.094.891 0 1.526-.5 1.906-1.5l.477-1.219-3.453-8.61Zm14.687 8.563-.258-1.219h-.062c-.427.537-.854.901-1.282 1.094-.421.187-.95.281-1.585.281-.849 0-1.516-.219-2-.656-.48-.438-.719-1.06-.719-1.867 0-1.729 1.383-2.636 4.148-2.719l1.453-.047v-.531c0-.672-.145-1.167-.437-1.485-.287-.322-.748-.484-1.383-.484-.713 0-1.521.219-2.422.656l-.398-.992a6.112 6.112 0 0 1 1.383-.539 6.056 6.056 0 0 1 1.515-.195c1.021 0 1.776.226 2.266.679.495.454.742 1.18.742 2.18v5.844h-.961Zm-2.93-.914c.808 0 1.44-.222 1.899-.664.463-.443.695-1.063.695-1.86v-.773l-1.297.055c-1.031.036-1.776.198-2.234.484-.453.281-.68.721-.68 1.32 0 .469.141.826.422 1.071.287.244.685.367 1.195.367Zm21.641.914v-5.57c0-.683-.146-1.193-.437-1.532-.292-.343-.745-.515-1.36-.515-.807 0-1.404.231-1.789.695-.385.464-.578 1.177-.578 2.141v4.781h-1.297v-5.57c0-.683-.146-1.193-.437-1.532-.292-.343-.748-.515-1.368-.515-.812 0-1.408.244-1.789.734-.375.484-.562 1.281-.562 2.391v4.492h-1.297v-8.563h1.055l.211 1.172h.062a2.56 2.56 0 0 1 1.031-.976 3.179 3.179 0 0 1 1.5-.352c1.339 0 2.214.485 2.625 1.453h.063a2.726 2.726 0 0 1 1.109-1.062c.485-.261 1.037-.391 1.656-.391.969 0 1.693.25 2.172.75.485.495.727 1.289.727 2.383v5.586h-1.297Zm7.594.156c-1.266 0-2.266-.385-3-1.156-.729-.771-1.094-1.841-1.094-3.211 0-1.38.339-2.477 1.016-3.289.682-.813 1.596-1.219 2.742-1.219 1.073 0 1.922.354 2.547 1.063.625.703.937 1.632.937 2.789v.82h-5.898c.026 1.005.278 1.768.758 2.289.484.521 1.164.781 2.039.781.922 0 1.833-.192 2.734-.578v1.156a6.587 6.587 0 0 1-1.305.422c-.406.089-.898.133-1.476.133Zm-.352-7.789c-.687 0-1.237.224-1.648.672-.407.448-.646 1.068-.719 1.859h4.477c0-.817-.183-1.442-.547-1.875-.365-.437-.886-.656-1.563-.656Zm11.578 7.633v-5.539c0-.698-.159-1.219-.476-1.563-.318-.343-.815-.515-1.492-.515-.896 0-1.553.242-1.969.726-.417.485-.625 1.284-.625 2.399v4.492h-1.297v-8.563h1.055l.211 1.172h.062a2.622 2.622 0 0 1 1.117-.976 3.588 3.588 0 0 1 1.602-.352c1.031 0 1.807.25 2.328.75.521.495.781 1.289.781 2.383v5.586h-1.297Zm6.735-.914c.229 0 .45-.016.664-.047a5.07 5.07 0 0 0 .508-.109v.992a2.343 2.343 0 0 1-.625.164c-.271.047-.516.07-.735.07-1.656 0-2.484-.872-2.484-2.617v-5.094h-1.227v-.625l1.227-.539.547-1.828h.75v1.984h2.484v1.008h-2.484v5.039c0 .516.122.912.367 1.188.245.276.581.414 1.008.414Zm10.281-3.375c0 1.396-.352 2.487-1.055 3.273-.703.782-1.674 1.172-2.914 1.172-.765 0-1.445-.18-2.039-.539-.594-.359-1.052-.875-1.375-1.547-.323-.672-.484-1.458-.484-2.359 0-1.396.349-2.482 1.047-3.258.698-.781 1.666-1.172 2.906-1.172 1.198 0 2.148.399 2.851 1.195.709.797 1.063 1.875 1.063 3.235Zm-6.523 0c0 1.094.218 1.927.656 2.5.437.573 1.08.859 1.929.859s1.493-.284 1.93-.851c.443-.573.664-1.409.664-2.508 0-1.089-.221-1.914-.664-2.477-.437-.567-1.086-.851-1.945-.851-.849 0-1.49.278-1.922.836-.432.557-.648 1.388-.648 2.492Zm12.71-4.43c.381 0 .722.031 1.024.094l-.18 1.203a4.418 4.418 0 0 0-.937-.117c-.693 0-1.287.281-1.782.844-.489.562-.734 1.263-.734 2.101v4.594h-1.297v-8.563h1.07l.149 1.586h.062c.318-.557.701-.987 1.149-1.289.448-.302.94-.453 1.476-.453Zm8 .156v5.555c0 .698.159 1.219.477 1.563.318.343.815.515 1.492.515.896 0 1.55-.245 1.961-.734.417-.49.625-1.289.625-2.399v-4.5h1.297v8.563h-1.07l-.188-1.149h-.07a2.584 2.584 0 0 1-1.11.969c-.468.224-1.005.336-1.609.336-1.042 0-1.823-.247-2.344-.742-.515-.495-.773-1.287-.773-2.375v-5.602h1.312Zm14.469 8.563v-5.539c0-.698-.159-1.219-.476-1.563-.318-.343-.815-.515-1.493-.515-.895 0-1.552.242-1.968.726-.417.485-.625 1.284-.625 2.399v4.492h-1.297v-8.563h1.054l.211 1.172h.063a2.622 2.622 0 0 1 1.117-.976 3.588 3.588 0 0 1 1.602-.352c1.031 0 1.807.25 2.328.75.521.495.781 1.289.781 2.383v5.586h-1.297Zm6.735-.914c.229 0 .45-.016.664-.047a5.04 5.04 0 0 0 .507-.109v.992c-.14.067-.349.122-.625.164-.27.047-.515.07-.734.07-1.656 0-2.484-.872-2.484-2.617v-5.094h-1.227v-.625l1.227-.539.547-1.828h.75v1.984h2.484v1.008h-2.484v5.039c0 .516.122.912.367 1.188.245.276.58.414 1.008.414Zm4.109-7.649v5.555c0 .698.159 1.219.477 1.563.317.343.815.515 1.492.515.896 0 1.549-.245 1.961-.734.416-.49.625-1.289.625-2.399v-4.5h1.296v8.563h-1.07l-.187-1.149h-.071a2.576 2.576 0 0 1-1.109.969c-.469.224-1.005.336-1.609.336-1.042 0-1.823-.247-2.344-.742-.516-.495-.774-1.287-.774-2.375v-5.602h1.313Zm9.891 4.18c.224-.318.565-.734 1.023-1.25l2.766-2.93h1.539l-3.469 3.649 3.711 4.914h-1.57l-3.024-4.047-.976.844v3.203h-1.282v-12.156h1.282v6.445c0 .286-.021.729-.063 1.328h.063Zm22.195 4.383v-5.57c0-.683-.146-1.193-.438-1.532-.291-.343-.744-.515-1.359-.515-.807 0-1.404.231-1.789.695-.385.464-.578 1.177-.578 2.141v4.781h-1.297v-5.57c0-.683-.146-1.193-.438-1.532-.291-.343-.747-.515-1.367-.515-.812 0-1.409.244-1.789.734-.375.484-.562 1.281-.562 2.391v4.492h-1.297v-8.563h1.055l.21 1.172h.063a2.554 2.554 0 0 1 1.031-.976 3.179 3.179 0 0 1 1.5-.352c1.339 0 2.214.485 2.625 1.453h.063a2.726 2.726 0 0 1 1.109-1.062c.484-.261 1.037-.391 1.656-.391.969 0 1.693.25 2.172.75.485.495.727 1.289.727 2.383v5.586h-1.297Zm7.594.156c-1.266 0-2.266-.385-3-1.156-.73-.771-1.094-1.841-1.094-3.211 0-1.38.338-2.477 1.015-3.289.683-.813 1.597-1.219 2.743-1.219 1.073 0 1.922.354 2.547 1.063.625.703.937 1.632.937 2.789v.82h-5.898c.026 1.005.278 1.768.757 2.289.485.521 1.164.781 2.04.781.921 0 1.833-.192 2.734-.578v1.156a6.587 6.587 0 0 1-1.305.422c-.406.089-.898.133-1.476.133Zm-.352-7.789c-.687 0-1.237.224-1.648.672-.407.448-.646 1.068-.719 1.859h4.476c0-.817-.182-1.442-.546-1.875-.365-.437-.886-.656-1.563-.656Zm16.633 7.633v-5.57c0-.683-.146-1.193-.438-1.532-.291-.343-.744-.515-1.359-.515-.807 0-1.404.231-1.789.695-.385.464-.578 1.177-.578 2.141v4.781h-1.297v-5.57c0-.683-.146-1.193-.438-1.532-.291-.343-.747-.515-1.367-.515-.812 0-1.409.244-1.789.734-.375.484-.562 1.281-.562 2.391v4.492h-1.297v-8.563h1.054l.211 1.172h.063a2.554 2.554 0 0 1 1.031-.976 3.179 3.179 0 0 1 1.5-.352c1.339 0 2.214.485 2.625 1.453h.063a2.726 2.726 0 0 1 1.109-1.062c.484-.261 1.037-.391 1.656-.391.969 0 1.693.25 2.172.75.485.495.727 1.289.727 2.383v5.586h-1.297Zm7.961-8.703c1.125 0 1.997.385 2.617 1.156.625.766.938 1.852.938 3.258s-.316 2.5-.946 3.281c-.625.776-1.495 1.164-2.609 1.164a3.758 3.758 0 0 1-1.531-.305 2.909 2.909 0 0 1-1.157-.953h-.093l-.274 1.102h-.93v-12.156h1.297v2.953c0 .661-.021 1.255-.062 1.781h.062c.604-.854 1.5-1.281 2.688-1.281Zm-.188 1.086c-.885 0-1.523.255-1.914.765-.39.506-.586 1.36-.586 2.563s.201 2.065.602 2.586c.401.515 1.044.773 1.93.773.796 0 1.39-.289 1.781-.867.39-.583.586-1.419.586-2.508 0-1.114-.196-1.945-.586-2.492-.391-.547-.995-.82-1.813-.82Zm11.282 7.617-.258-1.219h-.063c-.427.537-.854.901-1.281 1.094-.422.187-.951.281-1.586.281-.849 0-1.516-.219-2-.656-.479-.438-.719-1.06-.719-1.867 0-1.729 1.383-2.636 4.149-2.719l1.453-.047v-.531c0-.672-.146-1.167-.438-1.485-.286-.322-.747-.484-1.382-.484-.714 0-1.521.219-2.422.656l-.399-.992a6.112 6.112 0 0 1 1.383-.539 6.058 6.058 0 0 1 1.516-.195c1.021 0 1.776.226 2.265.679.495.454.743 1.18.743 2.18v5.844h-.961Zm-2.93-.914c.807 0 1.44-.222 1.898-.664.464-.443.696-1.063.696-1.86v-.773l-1.297.055c-1.032.036-1.776.198-2.235.484-.453.281-.679.721-.679 1.32 0 .469.14.826.422 1.071.286.244.684.367 1.195.367Zm12.43.914v-5.539c0-.698-.159-1.219-.477-1.563-.318-.343-.815-.515-1.492-.515-.896 0-1.552.242-1.969.726-.417.485-.625 1.284-.625 2.399v4.492h-1.297v-8.563h1.055l.211 1.172h.062a2.622 2.622 0 0 1 1.117-.976 3.594 3.594 0 0 1 1.602-.352c1.031 0 1.807.25 2.328.75.521.495.781 1.289.781 2.383v5.586h-1.296Zm6.734-.914c.229 0 .45-.016.664-.047.214-.037.383-.073.508-.109v.992a2.343 2.343 0 0 1-.625.164c-.271.047-.516.07-.735.07-1.656 0-2.484-.872-2.484-2.617v-5.094h-1.227v-.625l1.227-.539.547-1.828h.75v1.984h2.484v1.008h-2.484v5.039c0 .516.122.912.367 1.188.245.276.581.414 1.008.414Zm4.109-7.649v5.555c0 .698.159 1.219.477 1.563.318.343.815.515 1.492.515.896 0 1.55-.245 1.961-.734.417-.49.625-1.289.625-2.399v-4.5h1.297v8.563h-1.07l-.188-1.149h-.07a2.584 2.584 0 0 1-1.11.969c-.468.224-1.005.336-1.609.336-1.042 0-1.823-.247-2.344-.742-.515-.495-.773-1.287-.773-2.375v-5.602h1.312Zm14.047 4.18c.224-.318.565-.734 1.024-1.25l2.765-2.93h1.539l-3.468 3.649 3.711 4.914h-1.571l-3.023-4.047-.977.844v3.203h-1.281v-12.156h1.281v6.445c0 .286-.021.729-.062 1.328h.062Zm12.391 4.383-.258-1.219h-.062c-.428.537-.855.901-1.282 1.094-.422.187-.95.281-1.586.281-.849 0-1.515-.219-2-.656-.479-.438-.718-1.06-.718-1.867 0-1.729 1.382-2.636 4.148-2.719l1.453-.047v-.531c0-.672-.146-1.167-.437-1.485-.287-.322-.748-.484-1.383-.484-.714 0-1.521.219-2.422.656l-.399-.992a6.112 6.112 0 0 1 1.383-.539 6.07 6.07 0 0 1 1.516-.195c1.021 0 1.776.226 2.266.679.494.454.742 1.18.742 2.18v5.844h-.961Zm-2.93-.914c.807 0 1.44-.222 1.899-.664.463-.443.695-1.063.695-1.86v-.773l-1.297.055c-1.031.036-1.776.198-2.234.484-.453.281-.68.721-.68 1.32 0 .469.141.826.422 1.071.286.244.685.367 1.195.367Zm17.484.914v-5.57c0-.683-.145-1.193-.437-1.532-.292-.343-.745-.515-1.359-.515-.808 0-1.404.231-1.789.695-.386.464-.579 1.177-.579 2.141v4.781h-1.296v-5.57c0-.683-.146-1.193-.438-1.532-.292-.343-.747-.515-1.367-.515-.813 0-1.409.244-1.789.734-.375.484-.563 1.281-.563 2.391v4.492h-1.297v-8.563h1.055l.211 1.172h.063a2.548 2.548 0 0 1 1.031-.976 3.179 3.179 0 0 1 1.5-.352c1.338 0 2.213.485 2.625 1.453h.062a2.729 2.729 0 0 1 1.11-1.062c.484-.261 1.036-.391 1.656-.391.969 0 1.693.25 2.172.75.484.495.726 1.289.726 2.383v5.586h-1.297Zm5.196-8.563v5.555c0 .698.159 1.219.476 1.563.318.343.815.515 1.493.515.895 0 1.549-.245 1.961-.734.416-.49.624-1.289.624-2.399v-4.5h1.297v8.563h-1.07l-.187-1.149h-.071a2.576 2.576 0 0 1-1.109.969c-.469.224-1.005.336-1.61.336-1.041 0-1.822-.247-2.343-.742-.516-.495-.774-1.287-.774-2.375v-5.602h1.313Zm14.062 8.563h-1.297v-12.156h1.297v12.156Zm6.368.156c-1.266 0-2.266-.385-3-1.156-.73-.771-1.094-1.841-1.094-3.211 0-1.38.338-2.477 1.015-3.289.683-.813 1.597-1.219 2.743-1.219 1.072 0 1.921.354 2.546 1.063.625.703.938 1.632.938 2.789v.82h-5.898c.026 1.005.278 1.768.757 2.289.485.521 1.164.781 2.039.781.922 0 1.834-.192 2.735-.578v1.156a6.608 6.608 0 0 1-1.305.422c-.406.089-.898.133-1.476.133Zm-.352-7.789c-.688 0-1.237.224-1.648.672-.407.448-.646 1.068-.719 1.859h4.476c0-.817-.182-1.442-.547-1.875-.364-.437-.885-.656-1.562-.656Zm9.703-1.07c1.125 0 1.997.385 2.617 1.156.625.766.938 1.852.938 3.258s-.315 2.5-.946 3.281c-.625.776-1.494 1.164-2.609 1.164a3.758 3.758 0 0 1-1.531-.305 2.9 2.9 0 0 1-1.156-.953h-.094l-.274 1.102h-.929v-12.156h1.297v2.953c0 .661-.021 1.255-.063 1.781h.063c.604-.854 1.5-1.281 2.687-1.281Zm-.187 1.086c-.886 0-1.524.255-1.914.765-.391.506-.586 1.36-.586 2.563s.2 2.065.601 2.586c.401.515 1.044.773 1.93.773.797 0 1.39-.289 1.781-.867.391-.583.586-1.419.586-2.508 0-1.114-.195-1.945-.586-2.492-.391-.547-.995-.82-1.812-.82Zm7.312 7.617h-1.297v-8.563h1.297v8.563Zm-1.406-10.883c0-.297.073-.513.219-.648a.753.753 0 0 1 .546-.211c.209 0 .388.07.539.211.152.14.227.356.227.648 0 .292-.075.51-.227.656a.761.761 0 0 1-.539.211.753.753 0 0 1-.546-.211c-.146-.146-.219-.364-.219-.656Zm10.015 10.883v-5.539c0-.698-.158-1.219-.476-1.563-.318-.343-.815-.515-1.492-.515-.901 0-1.56.244-1.977.734-.411.49-.617 1.292-.617 2.406v4.477h-1.297v-12.156h1.297v3.679c0 .443-.021.81-.063 1.102h.079a2.619 2.619 0 0 1 1.085-.969c.474-.239 1.014-.359 1.618-.359 1.047 0 1.83.25 2.351.75.526.495.789 1.284.789 2.367v5.586h-1.297Zm19.039 0v-5.57c0-.683-.145-1.193-.437-1.532-.292-.343-.745-.515-1.359-.515-.808 0-1.404.231-1.789.695-.386.464-.579 1.177-.579 2.141v4.781h-1.296v-5.57c0-.683-.146-1.193-.438-1.532-.292-.343-.747-.515-1.367-.515-.813 0-1.409.244-1.789.734-.375.484-.563 1.281-.563 2.391v4.492h-1.297v-8.563h1.055l.211 1.172h.063a2.548 2.548 0 0 1 1.031-.976 3.179 3.179 0 0 1 1.5-.352c1.338 0 2.213.485 2.625 1.453h.062a2.729 2.729 0 0 1 1.11-1.062c.484-.261 1.036-.391 1.656-.391.969 0 1.693.25 2.172.75.484.495.726 1.289.726 2.383v5.586h-1.297Zm9.243 0-.258-1.219h-.063c-.427.537-.854.901-1.281 1.094-.422.187-.95.281-1.586.281-.849 0-1.515-.219-2-.656-.479-.438-.719-1.06-.719-1.867 0-1.729 1.383-2.636 4.149-2.719l1.453-.047v-.531c0-.672-.146-1.167-.438-1.485-.286-.322-.747-.484-1.382-.484-.714 0-1.521.219-2.422.656l-.399-.992a6.112 6.112 0 0 1 1.383-.539 6.064 6.064 0 0 1 1.516-.195c1.021 0 1.776.226 2.265.679.495.454.743 1.18.743 2.18v5.844h-.961Zm-2.93-.914c.807 0 1.44-.222 1.898-.664.464-.443.696-1.063.696-1.86v-.773l-1.297.055c-1.031.036-1.776.198-2.234.484-.454.281-.68.721-.68 1.32 0 .469.14.826.422 1.071.286.244.685.367 1.195.367Zm7.852-3.469c.224-.318.565-.734 1.023-1.25l2.766-2.93h1.539l-3.469 3.649 3.711 4.914h-1.57l-3.024-4.047-.976.844v3.203h-1.282v-12.156h1.282v6.445c0 .286-.021.729-.063 1.328h.063Zm12.648 2.047c0 .797-.297 1.411-.891 1.844-.593.432-1.427.648-2.5.648-1.135 0-2.02-.18-2.656-.539v-1.203c.412.208.852.372 1.32.492.474.12.93.18 1.368.18.677 0 1.198-.107 1.562-.32.365-.219.547-.55.547-.993 0-.333-.146-.617-.437-.851-.287-.24-.849-.521-1.688-.844-.797-.297-1.365-.555-1.703-.773a2.42 2.42 0 0 1-.75-.758c-.162-.281-.242-.617-.242-1.008 0-.698.284-1.247.851-1.649.568-.406 1.347-.609 2.336-.609.922 0 1.823.188 2.703.563l-.461 1.054c-.859-.354-1.638-.531-2.336-.531-.614 0-1.078.096-1.39.289-.313.193-.469.458-.469.797 0 .229.057.424.172.586.12.161.31.315.57.461.261.146.761.357 1.5.633 1.016.369 1.701.742 2.055 1.117.359.375.539.846.539 1.414Zm3.414 2.336h-1.297v-8.563h1.297v8.563Zm-1.406-10.883c0-.297.073-.513.219-.648a.753.753 0 0 1 .546-.211c.209 0 .388.07.54.211.151.14.226.356.226.648 0 .292-.075.51-.226.656a.765.765 0 0 1-.54.211.753.753 0 0 1-.546-.211c-.146-.146-.219-.364-.219-.656Zm15.07 10.883v-5.57c0-.683-.146-1.193-.437-1.532-.292-.343-.745-.515-1.36-.515-.807 0-1.403.231-1.789.695-.385.464-.578 1.177-.578 2.141v4.781h-1.297v-5.57c0-.683-.146-1.193-.437-1.532-.292-.343-.748-.515-1.367-.515-.813 0-1.409.244-1.79.734-.375.484-.562 1.281-.562 2.391v4.492h-1.297v-8.563h1.055l.211 1.172h.062a2.56 2.56 0 0 1 1.031-.976 3.179 3.179 0 0 1 1.5-.352c1.339 0 2.214.485 2.625 1.453h.063a2.726 2.726 0 0 1 1.109-1.062c.485-.261 1.037-.391 1.657-.391.968 0 1.692.25 2.171.75.485.495.727 1.289.727 2.383v5.586h-1.297Zm9.242 0-.257-1.219h-.063c-.427.537-.854.901-1.281 1.094-.422.187-.951.281-1.586.281-.849 0-1.516-.219-2-.656-.479-.438-.719-1.06-.719-1.867 0-1.729 1.383-2.636 4.149-2.719l1.453-.047v-.531c0-.672-.146-1.167-.438-1.485-.286-.322-.747-.484-1.383-.484-.713 0-1.521.219-2.422.656l-.398-.992a6.112 6.112 0 0 1 1.383-.539 6.056 6.056 0 0 1 1.515-.195c1.021 0 1.776.226 2.266.679.495.454.742 1.18.742 2.18v5.844h-.961Zm-2.929-.914c.807 0 1.44-.222 1.898-.664.464-.443.695-1.063.695-1.86v-.773l-1.297.055c-1.031.036-1.776.198-2.234.484-.453.281-.68.721-.68 1.32 0 .469.141.826.422 1.071.287.244.685.367 1.196.367Zm7.867.914h-1.297v-12.156h1.297v12.156Zm12.734-1.149h-.07c-.599.87-1.495 1.305-2.688 1.305-1.119 0-1.992-.383-2.617-1.148-.62-.766-.93-1.854-.93-3.266 0-1.411.313-2.508.938-3.289.625-.781 1.495-1.172 2.609-1.172 1.162 0 2.052.422 2.672 1.266h.102l-.055-.617-.031-.602v-3.484h1.297v12.156h-1.055l-.172-1.149Zm-2.594.219c.886 0 1.526-.239 1.922-.719.401-.484.602-1.263.602-2.335v-.274c0-1.213-.203-2.078-.609-2.594-.402-.521-1.045-.781-1.93-.781-.761 0-1.344.297-1.75.891-.401.588-.602 1.422-.602 2.5 0 1.093.201 1.919.602 2.476.401.558.989.836 1.765.836Zm11.844.93-.258-1.219h-.062c-.427.537-.854.901-1.281 1.094-.422.187-.951.281-1.586.281-.849 0-1.516-.219-2-.656-.479-.438-.719-1.06-.719-1.867 0-1.729 1.383-2.636 4.148-2.719l1.453-.047v-.531c0-.672-.145-1.167-.437-1.485-.286-.322-.747-.484-1.383-.484-.713 0-1.521.219-2.422.656l-.398-.992a6.112 6.112 0 0 1 1.383-.539 6.056 6.056 0 0 1 1.515-.195c1.021 0 1.776.226 2.266.679.495.454.742 1.18.742 2.18v5.844h-.961Zm-2.929-.914c.807 0 1.44-.222 1.898-.664.463-.443.695-1.063.695-1.86v-.773l-1.297.055c-1.031.036-1.776.198-2.234.484-.453.281-.68.721-.68 1.32 0 .469.141.826.422 1.071.287.244.685.367 1.196.367Zm7.867.914h-1.297v-12.156h1.297v12.156Zm8.015 0-.258-1.219h-.062c-.427.537-.854.901-1.281 1.094-.422.187-.951.281-1.586.281-.849 0-1.516-.219-2-.656-.479-.438-.719-1.06-.719-1.867 0-1.729 1.383-2.636 4.148-2.719l1.454-.047v-.531c0-.672-.146-1.167-.438-1.485-.286-.322-.747-.484-1.383-.484-.713 0-1.521.219-2.422.656l-.398-.992a6.112 6.112 0 0 1 1.383-.539 6.056 6.056 0 0 1 1.515-.195c1.021 0 1.776.226 2.266.679.495.454.742 1.18.742 2.18v5.844h-.961Zm-2.929-.914c.807 0 1.44-.222 1.898-.664.464-.443.695-1.063.695-1.86v-.773l-1.296.055c-1.032.036-1.777.198-2.235.484-.453.281-.68.721-.68 1.32 0 .469.141.826.422 1.071.287.244.685.367 1.196.367Zm17.484.914v-5.57c0-.683-.146-1.193-.437-1.532-.292-.343-.745-.515-1.36-.515-.807 0-1.404.231-1.789.695-.385.464-.578 1.177-.578 2.141v4.781h-1.297v-5.57c0-.683-.146-1.193-.437-1.532-.292-.343-.748-.515-1.368-.515-.812 0-1.408.244-1.789.734-.375.484-.562 1.281-.562 2.391v4.492h-1.297v-8.563h1.055l.211 1.172h.062a2.56 2.56 0 0 1 1.031-.976 3.179 3.179 0 0 1 1.5-.352c1.339 0 2.214.485 2.625 1.453h.063a2.726 2.726 0 0 1 1.109-1.062c.485-.261 1.037-.391 1.656-.391.969 0 1.693.25 2.172.75.485.495.727 1.289.727 2.383v5.586h-1.297ZM93.289 592.328a3.76 3.76 0 0 1-1.531-.305 2.908 2.908 0 0 1-1.156-.953h-.094c.062.5.094.974.094 1.422v3.524h-1.297v-12.407h1.054l.18 1.172h.063c.333-.469.72-.807 1.164-1.015.442-.209.95-.313 1.523-.313 1.135 0 2.01.388 2.625 1.164.62.776.93 1.865.93 3.266 0 1.406-.315 2.5-.946 3.281-.625.776-1.494 1.164-2.609 1.164Zm-.187-7.773c-.875 0-1.508.242-1.899.726-.39.485-.591 1.255-.601 2.313v.289c0 1.203.2 2.065.601 2.586.401.515 1.044.773 1.93.773.74 0 1.318-.299 1.734-.898.422-.599.633-1.425.633-2.477 0-1.068-.21-1.885-.633-2.453-.416-.573-1.005-.859-1.765-.859Zm9.921-1.102c.381 0 .722.031 1.024.094l-.18 1.203a4.418 4.418 0 0 0-.937-.117c-.693 0-1.287.281-1.782.844-.489.562-.734 1.263-.734 2.101v4.594h-1.297v-8.563h1.071l.148 1.586h.062c.318-.557.701-.987 1.149-1.289.448-.302.94-.453 1.476-.453Zm10.016 4.43c0 1.396-.351 2.487-1.055 3.273-.703.782-1.674 1.172-2.914 1.172-.765 0-1.445-.18-2.039-.539-.593-.359-1.052-.875-1.375-1.547-.323-.672-.484-1.458-.484-2.359 0-1.396.349-2.482 1.047-3.258.698-.781 1.666-1.172 2.906-1.172 1.198 0 2.148.399 2.852 1.195.708.797 1.062 1.875 1.062 3.235Zm-6.523 0c0 1.094.218 1.927.656 2.5.437.573 1.081.859 1.93.859s1.492-.284 1.929-.851c.443-.573.664-1.409.664-2.508 0-1.089-.221-1.914-.664-2.477-.437-.567-1.086-.851-1.945-.851-.849 0-1.49.278-1.922.836-.432.557-.648 1.388-.648 2.492Zm14.328 1.953c0 .797-.297 1.411-.891 1.844-.594.432-1.427.648-2.5.648-1.135 0-2.021-.18-2.656-.539v-1.203c.411.208.851.372 1.32.492.474.12.93.18 1.367.18.677 0 1.198-.107 1.563-.32.364-.219.547-.55.547-.993 0-.333-.146-.617-.438-.851-.286-.24-.849-.521-1.687-.844-.797-.297-1.365-.555-1.703-.773-.334-.224-.584-.477-.75-.758-.162-.281-.243-.617-.243-1.008 0-.698.284-1.247.852-1.649.568-.406 1.346-.609 2.336-.609.922 0 1.823.188 2.703.563l-.461 1.054c-.859-.354-1.638-.531-2.336-.531-.614 0-1.078.096-1.39.289-.313.193-.469.458-.469.797 0 .229.057.424.172.586.119.161.31.315.57.461.26.146.76.357 1.5.633 1.016.369 1.701.742 2.055 1.117.359.375.539.846.539 1.414Zm5.734 2.492c-1.266 0-2.266-.385-3-1.156-.729-.771-1.094-1.841-1.094-3.211 0-1.38.339-2.477 1.016-3.289.682-.813 1.596-1.219 2.742-1.219 1.073 0 1.922.354 2.547 1.063.625.703.938 1.632.938 2.789v.82h-5.899c.026 1.005.279 1.768.758 2.289.484.521 1.164.781 2.039.781.922 0 1.833-.192 2.734-.578v1.156a6.6 6.6 0 0 1-1.304.422c-.407.089-.899.133-1.477.133Zm-.351-7.789c-.688 0-1.237.224-1.649.672-.406.448-.646 1.068-.719 1.859h4.477c0-.817-.182-1.442-.547-1.875-.365-.437-.885-.656-1.562-.656Zm11.242 5.297c0 .797-.297 1.411-.891 1.844-.594.432-1.427.648-2.5.648-1.135 0-2.021-.18-2.656-.539v-1.203c.411.208.851.372 1.32.492.474.12.93.18 1.367.18.677 0 1.198-.107 1.563-.32.364-.219.547-.55.547-.993 0-.333-.146-.617-.438-.851-.286-.24-.849-.521-1.687-.844-.797-.297-1.365-.555-1.703-.773-.334-.224-.584-.477-.75-.758-.162-.281-.243-.617-.243-1.008 0-.698.284-1.247.852-1.649.568-.406 1.346-.609 2.336-.609.922 0 1.823.188 2.703.563l-.461 1.054c-.859-.354-1.638-.531-2.336-.531-.614 0-1.078.096-1.39.289-.313.193-.469.458-.469.797 0 .229.057.424.172.586.119.161.31.315.57.461.26.146.76.357 1.5.633 1.016.369 1.701.742 2.055 1.117.359.375.539.846.539 1.414Zm10.258-6.367c1.125 0 1.997.385 2.617 1.156.625.766.937 1.852.937 3.258s-.315 2.5-.945 3.281c-.625.776-1.495 1.164-2.609 1.164a3.762 3.762 0 0 1-1.532-.305 2.913 2.913 0 0 1-1.156-.953h-.094l-.273 1.102h-.93v-12.156h1.297v2.953c0 .661-.021 1.255-.062 1.781h.062c.604-.854 1.5-1.281 2.688-1.281Zm-.188 1.086c-.885 0-1.523.255-1.914.765-.391.506-.586 1.36-.586 2.563s.201 2.065.602 2.586c.401.515 1.044.773 1.929.773.797 0 1.391-.289 1.782-.867.39-.583.586-1.419.586-2.508 0-1.114-.196-1.945-.586-2.492-.391-.547-.995-.82-1.813-.82Zm9.633 7.773c-1.266 0-2.266-.385-3-1.156-.729-.771-1.094-1.841-1.094-3.211 0-1.38.339-2.477 1.016-3.289.682-.813 1.596-1.219 2.742-1.219 1.073 0 1.922.354 2.547 1.063.625.703.937 1.632.937 2.789v.82h-5.898c.026 1.005.279 1.768.758 2.289.484.521 1.164.781 2.039.781.922 0 1.833-.192 2.734-.578v1.156a6.587 6.587 0 0 1-1.305.422c-.406.089-.898.133-1.476.133Zm-.352-7.789c-.687 0-1.237.224-1.648.672-.406.448-.646 1.068-.719 1.859h4.477c0-.817-.183-1.442-.547-1.875-.365-.437-.886-.656-1.563-.656Zm7.016 7.633h-1.297v-12.156h1.297v12.156Zm8.016 0-.258-1.219h-.063c-.427.537-.854.901-1.281 1.094-.422.187-.951.281-1.586.281-.849 0-1.516-.219-2-.656-.479-.438-.719-1.06-.719-1.867 0-1.729 1.383-2.636 4.149-2.719l1.453-.047v-.531c0-.672-.146-1.167-.438-1.485-.286-.322-.747-.484-1.382-.484-.714 0-1.521.219-2.422.656l-.399-.992a6.112 6.112 0 0 1 1.383-.539 6.058 6.058 0 0 1 1.516-.195c1.021 0 1.776.226 2.265.679.495.454.742 1.18.742 2.18v5.844h-.96Zm-2.93-.914c.807 0 1.44-.222 1.898-.664.464-.443.696-1.063.696-1.86v-.773l-1.297.055c-1.031.036-1.776.198-2.235.484-.453.281-.679.721-.679 1.32 0 .469.14.826.422 1.071.286.244.684.367 1.195.367Zm5.531 4.758c-.495 0-.896-.065-1.203-.196v-1.054a3.81 3.81 0 0 0 1.062.156c.407 0 .704-.112.891-.336.193-.219.289-.555.289-1.008v-9.969h1.297v9.875c0 1.688-.779 2.532-2.336 2.532Zm.93-14.727c0-.297.073-.513.219-.648a.753.753 0 0 1 .546-.211c.209 0 .388.07.54.211.151.14.226.356.226.648 0 .292-.075.51-.226.656a.765.765 0 0 1-.54.211.753.753 0 0 1-.546-.211c-.146-.146-.219-.364-.219-.656Zm9.422 10.883-.258-1.219h-.063c-.427.537-.854.901-1.281 1.094-.422.187-.95.281-1.586.281-.849 0-1.515-.219-2-.656-.479-.438-.719-1.06-.719-1.867 0-1.729 1.383-2.636 4.149-2.719l1.453-.047v-.531c0-.672-.146-1.167-.438-1.485-.286-.322-.747-.484-1.382-.484-.714 0-1.521.219-2.422.656l-.399-.992a6.112 6.112 0 0 1 1.383-.539 6.064 6.064 0 0 1 1.516-.195c1.021 0 1.776.226 2.265.679.495.454.743 1.18.743 2.18v5.844h-.961Zm-2.93-.914c.807 0 1.44-.222 1.898-.664.464-.443.696-1.063.696-1.86v-.773l-1.297.055c-1.031.036-1.776.198-2.234.484-.454.281-.68.721-.68 1.32 0 .469.14.826.422 1.071.286.244.685.367 1.195.367Zm10.477-7.805c.38 0 .721.031 1.023.094l-.18 1.203a4.418 4.418 0 0 0-.937-.117c-.693 0-1.287.281-1.781.844-.49.562-.735 1.263-.735 2.101v4.594h-1.297v-8.563h1.071l.148 1.586h.063c.317-.557.7-.987 1.148-1.289.448-.302.94-.453 1.477-.453Zm2.437 7.891c0-.349.078-.612.234-.789.162-.183.391-.274.688-.274.302 0 .536.091.703.274.172.177.258.44.258.789 0 .338-.086.599-.258.781-.172.182-.406.273-.703.273a.945.945 0 0 1-.664-.242c-.172-.166-.258-.437-.258-.812Zm8.805-10.594h3.226c1.516 0 2.612.227 3.289.68.677.453 1.016 1.169 1.016 2.148 0 .677-.19 1.237-.57 1.68-.375.437-.925.721-1.649.851v.079c1.735.296 2.602 1.208 2.602 2.734 0 1.021-.347 1.818-1.039 2.39-.688.573-1.651.86-2.891.86h-3.984V580.75Zm1.328 4.891h2.187c.938 0 1.612-.146 2.024-.438.411-.297.617-.794.617-1.492 0-.641-.229-1.102-.688-1.383-.458-.286-1.187-.43-2.187-.43h-1.953v3.743Zm0 1.125v4.273h2.383c.922 0 1.614-.177 2.078-.531.469-.36.703-.919.703-1.68 0-.708-.24-1.229-.719-1.562-.474-.334-1.198-.5-2.172-.5h-2.273Zm14.117 5.406-.258-1.219h-.062c-.427.537-.854.901-1.281 1.094-.422.187-.951.281-1.586.281-.849 0-1.516-.219-2-.656-.48-.438-.719-1.06-.719-1.867 0-1.729 1.383-2.636 4.148-2.719l1.453-.047v-.531c0-.672-.145-1.167-.437-1.485-.287-.322-.748-.484-1.383-.484-.713 0-1.521.219-2.422.656l-.398-.992a6.112 6.112 0 0 1 1.383-.539 6.056 6.056 0 0 1 1.515-.195c1.021 0 1.776.226 2.266.679.495.454.742 1.18.742 2.18v5.844h-.961Zm-2.93-.914c.808 0 1.44-.222 1.899-.664.463-.443.695-1.063.695-1.86v-.773l-1.297.055c-1.031.036-1.776.198-2.234.484-.453.281-.68.721-.68 1.32 0 .469.141.826.422 1.071.287.244.685.367 1.195.367Zm7.868.914h-1.297v-8.563h1.297v8.563Zm-1.407-10.883c0-.297.073-.513.219-.648a.755.755 0 0 1 .547-.211c.208 0 .388.07.539.211.151.14.227.356.227.648 0 .292-.076.51-.227.656a.763.763 0 0 1-.539.211.755.755 0 0 1-.547-.211c-.146-.146-.219-.364-.219-.656Zm5.438 6.5c.224-.318.565-.734 1.023-1.25l2.766-2.93h1.539l-3.469 3.649 3.711 4.914h-1.57l-3.024-4.047-.976.844v3.203h-1.281v-12.156h1.281v6.445c0 .286-.021.729-.063 1.328h.063Zm22.195 4.383v-5.57c0-.683-.146-1.193-.437-1.532-.292-.343-.745-.515-1.36-.515-.807 0-1.403.231-1.789.695-.385.464-.578 1.177-.578 2.141v4.781h-1.297v-5.57c0-.683-.146-1.193-.437-1.532-.292-.343-.748-.515-1.367-.515-.813 0-1.409.244-1.79.734-.375.484-.562 1.281-.562 2.391v4.492h-1.297v-8.563h1.055l.211 1.172h.062a2.56 2.56 0 0 1 1.031-.976 3.179 3.179 0 0 1 1.5-.352c1.339 0 2.214.485 2.625 1.453h.063a2.726 2.726 0 0 1 1.109-1.062c.485-.261 1.037-.391 1.657-.391.968 0 1.692.25 2.171.75.485.495.727 1.289.727 2.383v5.586h-1.297Zm7.594.156c-1.266 0-2.266-.385-3-1.156-.729-.771-1.094-1.841-1.094-3.211 0-1.38.339-2.477 1.016-3.289.682-.813 1.596-1.219 2.742-1.219 1.073 0 1.922.354 2.547 1.063.625.703.937 1.632.937 2.789v.82h-5.898c.026 1.005.279 1.768.758 2.289.484.521 1.164.781 2.039.781.922 0 1.833-.192 2.734-.578v1.156a6.587 6.587 0 0 1-1.305.422c-.406.089-.898.133-1.476.133Zm-.352-7.789c-.687 0-1.237.224-1.648.672-.406.448-.646 1.068-.719 1.859h4.477c0-.817-.183-1.442-.547-1.875-.365-.437-.886-.656-1.563-.656Zm11.578 7.633v-5.539c0-.698-.158-1.219-.476-1.563-.318-.343-.815-.515-1.492-.515-.896 0-1.552.242-1.969.726-.417.485-.625 1.284-.625 2.399v4.492h-1.297v-8.563h1.055l.211 1.172h.062a2.622 2.622 0 0 1 1.117-.976 3.59 3.59 0 0 1 1.602-.352c1.031 0 1.807.25 2.328.75.521.495.781 1.289.781 2.383v5.586h-1.297Zm6.735-.914c.229 0 .45-.016.664-.047a5.07 5.07 0 0 0 .508-.109v.992a2.343 2.343 0 0 1-.625.164c-.271.047-.516.07-.735.07-1.656 0-2.484-.872-2.484-2.617v-5.094h-1.227v-.625l1.227-.539.547-1.828h.75v1.984h2.484v1.008h-2.484v5.039c0 .516.122.912.367 1.188.245.276.581.414 1.008.414Zm10.281-3.375c0 1.396-.351 2.487-1.055 3.273-.703.782-1.674 1.172-2.914 1.172-.765 0-1.445-.18-2.039-.539-.593-.359-1.052-.875-1.375-1.547-.323-.672-.484-1.458-.484-2.359 0-1.396.349-2.482 1.047-3.258.698-.781 1.666-1.172 2.906-1.172 1.198 0 2.148.399 2.852 1.195.708.797 1.062 1.875 1.062 3.235Zm-6.523 0c0 1.094.218 1.927.656 2.5.437.573 1.081.859 1.93.859s1.492-.284 1.929-.851c.443-.573.664-1.409.664-2.508 0-1.089-.221-1.914-.664-2.477-.437-.567-1.086-.851-1.945-.851-.849 0-1.49.278-1.922.836-.432.557-.648 1.388-.648 2.492Zm12.711-4.43c.38 0 .721.031 1.023.094l-.18 1.203a4.418 4.418 0 0 0-.937-.117c-.693 0-1.287.281-1.781.844-.49.562-.735 1.263-.735 2.101v4.594h-1.297v-8.563h1.071l.148 1.586h.063c.317-.557.7-.987 1.148-1.289.448-.302.94-.453 1.477-.453Zm12.609 7.57h-.07c-.599.87-1.495 1.305-2.688 1.305-1.12 0-1.992-.383-2.617-1.148-.62-.766-.93-1.854-.93-3.266 0-1.411.313-2.508.938-3.289.625-.781 1.495-1.172 2.609-1.172 1.162 0 2.052.422 2.672 1.266h.102l-.055-.617-.031-.602v-3.484h1.296v12.156h-1.054l-.172-1.149Zm-2.594.219c.886 0 1.526-.239 1.922-.719.401-.484.602-1.263.602-2.335v-.274c0-1.213-.204-2.078-.61-2.594-.401-.521-1.044-.781-1.929-.781-.761 0-1.344.297-1.75.891-.401.588-.602 1.422-.602 2.5 0 1.093.201 1.919.602 2.476.401.558.989.836 1.765.836Zm7.875.93h-1.297v-8.563h1.297v8.563Zm-1.406-10.883c0-.297.073-.513.219-.648a.755.755 0 0 1 .547-.211c.208 0 .388.07.539.211.151.14.226.356.226.648 0 .292-.075.51-.226.656a.763.763 0 0 1-.539.211.755.755 0 0 1-.547-.211c-.146-.146-.219-.364-.219-.656Zm12.297 2.18c1.125 0 1.997.385 2.617 1.156.625.766.937 1.852.937 3.258s-.315 2.5-.945 3.281c-.625.776-1.495 1.164-2.609 1.164a3.758 3.758 0 0 1-1.531-.305 2.909 2.909 0 0 1-1.157-.953h-.093l-.274 1.102h-.93v-12.156h1.297v2.953c0 .661-.021 1.255-.062 1.781h.062c.604-.854 1.5-1.281 2.688-1.281Zm-.188 1.086c-.885 0-1.523.255-1.914.765-.39.506-.586 1.36-.586 2.563s.201 2.065.602 2.586c.401.515 1.044.773 1.93.773.796 0 1.39-.289 1.781-.867.39-.583.586-1.419.586-2.508 0-1.114-.196-1.945-.586-2.492-.391-.547-.995-.82-1.813-.82Zm13.407 3.328c0 1.396-.352 2.487-1.055 3.273-.703.782-1.675 1.172-2.914 1.172-.766 0-1.446-.18-2.039-.539-.594-.359-1.052-.875-1.375-1.547-.323-.672-.485-1.458-.485-2.359 0-1.396.349-2.482 1.047-3.258.698-.781 1.667-1.172 2.906-1.172 1.198 0 2.149.399 2.852 1.195.708.797 1.063 1.875 1.063 3.235Zm-6.524 0c0 1.094.219 1.927.656 2.5.438.573 1.081.859 1.93.859s1.492-.284 1.93-.851c.442-.573.664-1.409.664-2.508 0-1.089-.222-1.914-.664-2.477-.438-.567-1.086-.851-1.946-.851-.849 0-1.489.278-1.921.836-.433.557-.649 1.388-.649 2.492Zm16.195 0c0 1.396-.351 2.487-1.054 3.273-.703.782-1.675 1.172-2.914 1.172-.766 0-1.446-.18-2.039-.539-.594-.359-1.052-.875-1.375-1.547-.323-.672-.485-1.458-.485-2.359 0-1.396.349-2.482 1.047-3.258.698-.781 1.667-1.172 2.906-1.172 1.198 0 2.149.399 2.852 1.195.708.797 1.062 1.875 1.062 3.235Zm-6.523 0c0 1.094.219 1.927.656 2.5.438.573 1.081.859 1.93.859s1.492-.284 1.93-.851c.442-.573.664-1.409.664-2.508 0-1.089-.222-1.914-.664-2.477-.438-.567-1.086-.851-1.946-.851-.849 0-1.489.278-1.922.836-.432.557-.648 1.388-.648 2.492Zm11.57 3.375c.229 0 .451-.016.664-.047.214-.037.383-.073.508-.109v.992c-.14.067-.349.122-.625.164-.271.047-.515.07-.734.07-1.656 0-2.485-.872-2.485-2.617v-5.094h-1.226v-.625l1.226-.539.547-1.828h.75v1.984h2.485v1.008h-2.485v5.039c0 .516.123.912.368 1.188.244.276.58.414 1.007.414Zm6.313 1.07c-1.24 0-2.201-.38-2.883-1.14-.677-.766-1.016-1.847-1.016-3.243 0-1.432.344-2.539 1.032-3.32.692-.781 1.677-1.172 2.953-1.172.411 0 .823.044 1.234.133.412.088.734.193.969.312l-.399 1.102a5.788 5.788 0 0 0-.937-.281 4.063 4.063 0 0 0-.899-.117c-1.739 0-2.609 1.109-2.609 3.328 0 1.052.211 1.859.633 2.422.427.562 1.057.843 1.891.843.713 0 1.445-.153 2.195-.461v1.149c-.573.297-1.294.445-2.164.445Zm9.469-.156-.258-1.219h-.063c-.427.537-.854.901-1.281 1.094-.422.187-.951.281-1.586.281-.849 0-1.516-.219-2-.656-.479-.438-.719-1.06-.719-1.867 0-1.729 1.383-2.636 4.149-2.719l1.453-.047v-.531c0-.672-.146-1.167-.438-1.485-.286-.322-.747-.484-1.382-.484-.714 0-1.521.219-2.422.656l-.399-.992a6.112 6.112 0 0 1 1.383-.539 6.058 6.058 0 0 1 1.516-.195c1.021 0 1.776.226 2.265.679.495.454.743 1.18.743 2.18v5.844h-.961Zm-2.93-.914c.807 0 1.44-.222 1.898-.664.464-.443.696-1.063.696-1.86v-.773l-1.297.055c-1.032.036-1.776.198-2.235.484-.453.281-.679.721-.679 1.32 0 .469.14.826.422 1.071.286.244.684.367 1.195.367Zm17.484.914v-5.57c0-.683-.146-1.193-.437-1.532-.292-.343-.745-.515-1.36-.515-.807 0-1.403.231-1.789.695-.385.464-.578 1.177-.578 2.141v4.781h-1.297v-5.57c0-.683-.146-1.193-.437-1.532-.292-.343-.748-.515-1.367-.515-.813 0-1.409.244-1.789.734-.375.484-.563 1.281-.563 2.391v4.492h-1.297v-8.563h1.055l.211 1.172h.062a2.557 2.557 0 0 1 1.032-.976 3.173 3.173 0 0 1 1.5-.352c1.338 0 2.213.485 2.625 1.453h.062a2.726 2.726 0 0 1 1.109-1.062c.485-.261 1.037-.391 1.657-.391.968 0 1.692.25 2.172.75.484.495.726 1.289.726 2.383v5.586h-1.297Zm7.961.156a3.758 3.758 0 0 1-1.531-.305 2.906 2.906 0 0 1-1.156-.953h-.094c.062.5.094.974.094 1.422v3.524h-1.297v-12.407h1.054l.18 1.172h.063c.333-.469.721-.807 1.164-1.015.442-.209.95-.313 1.523-.313 1.136 0 2.011.388 2.625 1.164.62.776.93 1.865.93 3.266 0 1.406-.315 2.5-.945 3.281-.625.776-1.495 1.164-2.61 1.164Zm-.187-7.773c-.875 0-1.508.242-1.899.726-.39.485-.591 1.255-.601 2.313v.289c0 1.203.2 2.065.601 2.586.401.515 1.045.773 1.93.773.74 0 1.318-.299 1.734-.898.422-.599.633-1.425.633-2.477 0-1.068-.211-1.885-.633-2.453-.416-.573-1.005-.859-1.765-.859Zm21.086 7.617v-5.57c0-.683-.146-1.193-.438-1.532-.292-.343-.745-.515-1.359-.515-.808 0-1.404.231-1.789.695-.386.464-.578 1.177-.578 2.141v4.781h-1.297v-5.57c0-.683-.146-1.193-.438-1.532-.291-.343-.747-.515-1.367-.515-.813 0-1.409.244-1.789.734-.375.484-.563 1.281-.563 2.391v4.492h-1.296v-8.563h1.054l.211 1.172h.063a2.548 2.548 0 0 1 1.031-.976 3.179 3.179 0 0 1 1.5-.352c1.338 0 2.213.485 2.625 1.453h.062a2.729 2.729 0 0 1 1.11-1.062c.484-.261 1.036-.391 1.656-.391.969 0 1.693.25 2.172.75.484.495.727 1.289.727 2.383v5.586h-1.297Zm9.242 0-.258-1.219h-.063c-.427.537-.854.901-1.281 1.094-.422.187-.95.281-1.586.281-.849 0-1.515-.219-2-.656-.479-.438-.718-1.06-.718-1.867 0-1.729 1.382-2.636 4.148-2.719l1.453-.047v-.531c0-.672-.146-1.167-.437-1.485-.287-.322-.748-.484-1.383-.484-.714 0-1.521.219-2.422.656l-.398-.992a6.085 6.085 0 0 1 1.382-.539 6.07 6.07 0 0 1 1.516-.195c1.021 0 1.776.226 2.266.679.494.454.742 1.18.742 2.18v5.844h-.961Zm-2.93-.914c.807 0 1.44-.222 1.899-.664.463-.443.695-1.063.695-1.86v-.773l-1.297.055c-1.031.036-1.776.198-2.234.484-.454.281-.68.721-.68 1.32 0 .469.141.826.422 1.071.286.244.685.367 1.195.367Zm7.789-7.649v5.555c0 .698.159 1.219.477 1.563.317.343.815.515 1.492.515.896 0 1.549-.245 1.961-.734.417-.49.625-1.289.625-2.399v-4.5h1.297v8.563h-1.071l-.187-1.149h-.07a2.584 2.584 0 0 1-1.11.969c-.468.224-1.005.336-1.609.336-1.042 0-1.823-.247-2.344-.742-.515-.495-.773-1.287-.773-2.375v-5.602h1.312Zm12.594 8.719a3.758 3.758 0 0 1-1.531-.305 2.909 2.909 0 0 1-1.157-.953h-.093c.062.5.093.974.093 1.422v3.524h-1.296v-12.407h1.054l.18 1.172h.062c.334-.469.722-.807 1.164-1.015.443-.209.951-.313 1.524-.313 1.135 0 2.01.388 2.625 1.164.62.776.93 1.865.93 3.266 0 1.406-.315 2.5-.946 3.281-.625.776-1.494 1.164-2.609 1.164Zm-.188-7.773c-.875 0-1.507.242-1.898.726-.391.485-.591 1.255-.602 2.313v.289c0 1.203.201 2.065.602 2.586.401.515 1.044.773 1.93.773.739 0 1.317-.299 1.734-.898.422-.599.633-1.425.633-2.477 0-1.068-.211-1.885-.633-2.453-.417-.573-1.005-.859-1.766-.859Zm7.235-.946v5.555c0 .698.159 1.219.476 1.563.318.343.815.515 1.493.515.895 0 1.549-.245 1.96-.734.417-.49.626-1.289.626-2.399v-4.5h1.296v8.563h-1.07l-.187-1.149h-.071a2.576 2.576 0 0 1-1.109.969c-.469.224-1.005.336-1.609.336-1.042 0-1.823-.247-2.344-.742-.516-.495-.774-1.287-.774-2.375v-5.602h1.313Zm14.469 8.563v-5.539c0-.698-.159-1.219-.477-1.563-.318-.343-.815-.515-1.492-.515-.896 0-1.552.242-1.969.726-.417.485-.625 1.284-.625 2.399v4.492h-1.297v-8.563h1.055l.211 1.172h.062a2.619 2.619 0 0 1 1.118-.976 3.587 3.587 0 0 1 1.601-.352c1.031 0 1.807.25 2.328.75.521.495.781 1.289.781 2.383v5.586h-1.296Zm13.953-1.149h-.071c-.599.87-1.494 1.305-2.687 1.305-1.12 0-1.992-.383-2.617-1.148-.62-.766-.93-1.854-.93-3.266 0-1.411.312-2.508.938-3.289.624-.781 1.494-1.172 2.609-1.172 1.161 0 2.052.422 2.672 1.266h.101l-.054-.617-.032-.602v-3.484h1.297v12.156h-1.054l-.172-1.149Zm-2.594.219c.885 0 1.526-.239 1.922-.719.401-.484.601-1.263.601-2.335v-.274c0-1.213-.203-2.078-.609-2.594-.401-.521-1.044-.781-1.93-.781-.76 0-1.343.297-1.75.891-.401.588-.601 1.422-.601 2.5 0 1.093.2 1.919.601 2.476.401.558.99.836 1.766.836Zm11.844.93-.258-1.219h-.063c-.427.537-.854.901-1.281 1.094-.422.187-.95.281-1.586.281-.849 0-1.515-.219-2-.656-.479-.438-.719-1.06-.719-1.867 0-1.729 1.383-2.636 4.149-2.719l1.453-.047v-.531c0-.672-.146-1.167-.438-1.485-.286-.322-.747-.484-1.382-.484-.714 0-1.521.219-2.422.656l-.399-.992a6.112 6.112 0 0 1 1.383-.539 6.064 6.064 0 0 1 1.516-.195c1.021 0 1.776.226 2.265.679.495.454.743 1.18.743 2.18v5.844h-.961Zm-2.93-.914c.807 0 1.44-.222 1.898-.664.464-.443.696-1.063.696-1.86v-.773l-1.297.055c-1.031.036-1.776.198-2.234.484-.454.281-.68.721-.68 1.32 0 .469.14.826.422 1.071.286.244.685.367 1.195.367Zm7.867.914h-1.297v-12.156h1.297v12.156Zm8.016 0-.258-1.219h-.062c-.428.537-.855.901-1.282 1.094-.422.187-.95.281-1.586.281-.849 0-1.515-.219-2-.656-.479-.438-.718-1.06-.718-1.867 0-1.729 1.382-2.636 4.148-2.719l1.453-.047v-.531c0-.672-.146-1.167-.437-1.485-.287-.322-.748-.484-1.383-.484-.714 0-1.521.219-2.422.656l-.399-.992a6.112 6.112 0 0 1 1.383-.539 6.07 6.07 0 0 1 1.516-.195c1.021 0 1.776.226 2.266.679.494.454.742 1.18.742 2.18v5.844h-.961Zm-2.93-.914c.807 0 1.44-.222 1.899-.664.463-.443.695-1.063.695-1.86v-.773l-1.297.055c-1.031.036-1.776.198-2.234.484-.453.281-.68.721-.68 1.32 0 .469.141.826.422 1.071.286.244.685.367 1.195.367Zm17.484.914v-5.57c0-.683-.145-1.193-.437-1.532-.292-.343-.745-.515-1.359-.515-.808 0-1.404.231-1.789.695-.386.464-.579 1.177-.579 2.141v4.781h-1.296v-5.57c0-.683-.146-1.193-.438-1.532-.292-.343-.747-.515-1.367-.515-.813 0-1.409.244-1.789.734-.375.484-.563 1.281-.563 2.391v4.492h-1.297v-8.563h1.055l.211 1.172h.063a2.548 2.548 0 0 1 1.031-.976 3.179 3.179 0 0 1 1.5-.352c1.338 0 2.213.485 2.625 1.453h.062a2.729 2.729 0 0 1 1.11-1.062c.484-.261 1.036-.391 1.656-.391.969 0 1.693.25 2.172.75.484.495.726 1.289.726 2.383v5.586h-1.297Zm19.047 0v-5.57c0-.683-.145-1.193-.437-1.532-.292-.343-.745-.515-1.36-.515-.807 0-1.403.231-1.789.695-.385.464-.578 1.177-.578 2.141v4.781h-1.297v-5.57c0-.683-.145-1.193-.437-1.532-.292-.343-.747-.515-1.367-.515-.813 0-1.409.244-1.789.734-.375.484-.563 1.281-.563 2.391v4.492h-1.297v-8.563h1.055l.211 1.172h.062a2.557 2.557 0 0 1 1.032-.976 3.179 3.179 0 0 1 1.5-.352c1.338 0 2.213.485 2.625 1.453h.062a2.723 2.723 0 0 1 1.11-1.062c.484-.261 1.036-.391 1.656-.391.969 0 1.693.25 2.172.75.484.495.726 1.289.726 2.383v5.586h-1.297Zm11.368-4.289c0 1.396-.352 2.487-1.055 3.273-.703.782-1.675 1.172-2.914 1.172-.766 0-1.446-.18-2.039-.539-.594-.359-1.052-.875-1.375-1.547-.323-.672-.485-1.458-.485-2.359 0-1.396.349-2.482 1.047-3.258.698-.781 1.667-1.172 2.906-1.172 1.198 0 2.149.399 2.852 1.195.708.797 1.063 1.875 1.063 3.235Zm-6.524 0c0 1.094.219 1.927.656 2.5.438.573 1.081.859 1.93.859s1.492-.284 1.93-.851c.442-.573.664-1.409.664-2.508 0-1.089-.222-1.914-.664-2.477-.438-.567-1.086-.851-1.946-.851-.849 0-1.489.278-1.921.836-.433.557-.649 1.388-.649 2.492Zm14.633 3.14h-.07c-.599.87-1.495 1.305-2.688 1.305-1.12 0-1.992-.383-2.617-1.148-.62-.766-.93-1.854-.93-3.266 0-1.411.313-2.508.938-3.289.625-.781 1.495-1.172 2.609-1.172 1.162 0 2.052.422 2.672 1.266h.102l-.055-.617-.031-.602v-3.484h1.296v12.156h-1.054l-.172-1.149Zm-2.594.219c.886 0 1.526-.239 1.922-.719.401-.484.602-1.263.602-2.335v-.274c0-1.213-.204-2.078-.61-2.594-.401-.521-1.044-.781-1.929-.781-.761 0-1.344.297-1.75.891-.401.588-.602 1.422-.602 2.5 0 1.093.201 1.919.602 2.476.401.558.989.836 1.765.836Zm7.797-7.633v5.555c0 .698.159 1.219.477 1.563.317.343.815.515 1.492.515.896 0 1.549-.245 1.961-.734.416-.49.625-1.289.625-2.399v-4.5h1.297v8.563h-1.071l-.187-1.149h-.071a2.576 2.576 0 0 1-1.109.969c-.469.224-1.005.336-1.609.336-1.042 0-1.823-.247-2.344-.742-.516-.495-.773-1.287-.773-2.375v-5.602h1.312Zm9.906 8.563h-1.297v-12.156h1.297v12.156Zm-275.359 19.711c0 1.396-.352 2.487-1.055 3.273-.703.782-1.674 1.172-2.914 1.172-.765 0-1.445-.18-2.039-.539-.594-.359-1.052-.875-1.375-1.547-.323-.672-.484-1.458-.484-2.359 0-1.396.349-2.482 1.047-3.258.698-.781 1.666-1.172 2.906-1.172 1.198 0 2.148.399 2.851 1.195.709.797 1.063 1.875 1.063 3.235Zm-6.524 0c0 1.094.219 1.927.657 2.5.437.573 1.08.859 1.929.859s1.493-.284 1.93-.851c.443-.573.664-1.409.664-2.508 0-1.089-.221-1.914-.664-2.477-.437-.567-1.086-.851-1.945-.851-.849 0-1.49.278-1.922.836-.432.557-.649 1.388-.649 2.492Zm14.665 4.289v-5.539c0-.698-.159-1.219-.477-1.563-.318-.343-.815-.515-1.492-.515-.896 0-1.552.242-1.969.726-.417.485-.625 1.284-.625 2.399v4.492h-1.297v-8.563h1.055l.211 1.172h.062a2.622 2.622 0 0 1 1.117-.976 3.594 3.594 0 0 1 1.602-.352c1.031 0 1.807.25 2.328.75.521.495.781 1.289.781 2.383v5.586h-1.296Zm5.265 0h-1.297v-12.156h1.297v12.156Zm4.047 0h-1.297v-8.563h1.297v8.563Zm-1.406-10.883c0-.297.073-.513.219-.648a.753.753 0 0 1 .546-.211c.209 0 .388.07.54.211.151.14.226.356.226.648 0 .292-.075.51-.226.656a.765.765 0 0 1-.54.211.753.753 0 0 1-.546-.211c-.146-.146-.219-.364-.219-.656Zm10.015 10.883v-5.539c0-.698-.158-1.219-.476-1.563-.318-.343-.815-.515-1.492-.515-.896 0-1.552.242-1.969.726-.417.485-.625 1.284-.625 2.399v4.492h-1.297v-8.563h1.055l.211 1.172h.062a2.622 2.622 0 0 1 1.117-.976 3.59 3.59 0 0 1 1.602-.352c1.031 0 1.807.25 2.328.75.521.495.781 1.289.781 2.383v5.586h-1.297Zm7.586.156c-1.265 0-2.265-.385-3-1.156-.729-.771-1.093-1.841-1.093-3.211 0-1.38.338-2.477 1.015-3.289.683-.813 1.597-1.219 2.742-1.219 1.073 0 1.922.354 2.547 1.063.625.703.938 1.632.938 2.789v.82h-5.899c.026 1.005.279 1.768.758 2.289.485.521 1.164.781 2.039.781.922 0 1.834-.192 2.735-.578v1.156a6.63 6.63 0 0 1-1.305.422c-.406.089-.899.133-1.477.133Zm-.351-7.789c-.688 0-1.237.224-1.649.672-.406.448-.645 1.068-.718 1.859h4.476c0-.817-.182-1.442-.547-1.875-.364-.437-.885-.656-1.562-.656Zm11.156 3.25c.224-.318.565-.734 1.023-1.25l2.766-2.93h1.539l-3.469 3.649 3.711 4.914h-1.57l-3.023-4.047-.977.844v3.203h-1.281v-12.156h1.281v6.445c0 .286-.021.729-.062 1.328h.062Zm12.391 4.383-.258-1.219h-.063c-.427.537-.854.901-1.281 1.094-.422.187-.95.281-1.586.281-.849 0-1.515-.219-2-.656-.479-.438-.719-1.06-.719-1.867 0-1.729 1.383-2.636 4.149-2.719l1.453-.047v-.531c0-.672-.146-1.167-.437-1.485-.287-.322-.748-.484-1.383-.484-.714 0-1.521.219-2.422.656l-.399-.992a6.112 6.112 0 0 1 1.383-.539 6.064 6.064 0 0 1 1.516-.195c1.021 0 1.776.226 2.265.679.495.454.743 1.18.743 2.18v5.844h-.961Zm-2.93-.914c.807 0 1.44-.222 1.898-.664.464-.443.696-1.063.696-1.86v-.773l-1.297.055c-1.031.036-1.776.198-2.235.484-.453.281-.679.721-.679 1.32 0 .469.14.826.422 1.071.286.244.685.367 1.195.367Zm17.484.914v-5.57c0-.683-.145-1.193-.437-1.532-.292-.343-.745-.515-1.359-.515-.808 0-1.404.231-1.79.695-.385.464-.578 1.177-.578 2.141v4.781h-1.297v-5.57c0-.683-.145-1.193-.437-1.532-.292-.343-.747-.515-1.367-.515-.813 0-1.409.244-1.789.734-.375.484-.563 1.281-.563 2.391v4.492h-1.297v-8.563h1.055l.211 1.172h.062a2.557 2.557 0 0 1 1.032-.976 3.179 3.179 0 0 1 1.5-.352c1.338 0 2.213.485 2.625 1.453h.062a2.723 2.723 0 0 1 1.11-1.062c.484-.261 1.036-.391 1.656-.391.969 0 1.693.25 2.172.75.484.495.726 1.289.726 2.383v5.586h-1.297Zm5.196-8.563v5.555c0 .698.159 1.219.476 1.563.318.343.815.515 1.492.515.896 0 1.55-.245 1.961-.734.417-.49.625-1.289.625-2.399v-4.5h1.297v8.563h-1.07l-.188-1.149h-.07a2.576 2.576 0 0 1-1.109.969c-.469.224-1.005.336-1.61.336-1.041 0-1.823-.247-2.343-.742-.516-.495-.774-1.287-.774-2.375v-5.602h1.313Zm8.422 7.735c0-.349.078-.612.234-.789.161-.183.391-.274.687-.274.303 0 .537.091.704.274.171.177.257.44.257.789 0 .338-.086.599-.257.781-.172.182-.407.273-.704.273a.947.947 0 0 1-.664-.242c-.171-.166-.257-.437-.257-.812ZM263.045 674.915h46.719v3.724h-46.719zM317.891 674.915h30.469v3.724h-30.469zM356.486 674.915h30.469v3.724h-30.469z"/></g><path d="M56.5 83.5c-22.4-36 9.334-68.667 28-80.5C88.102 1 91 .167 92 0H.125v822H294c-69.833-26.333-212-92.9-222-148.5-12.5-69.5 34.501-143-15.5-233-50-90-21.499-160 0-201.5 21.5-41.5 28-110.5 0-155.5ZM590.001 47c-23.2-8-18.334-34.667-13-47H650v247c-49.5 17.5-78-70.5-59.999-96 18.001-25.5 29-94 0-104Z" fill="#fff" fill-opacity=".05"/></svg>